<?xml version="1.0" encoding="UTF-8" standalone="no"?>
<svg
   xmlns:dc="http://purl.org/dc/elements/1.1/"
   xmlns:cc="http://creativecommons.org/ns#"
   xmlns:rdf="http://www.w3.org/1999/02/22-rdf-syntax-ns#"
   xmlns:svg="http://www.w3.org/2000/svg"
   xmlns="http://www.w3.org/2000/svg"
   xmlns:sodipodi="http://sodipodi.sourceforge.net/DTD/sodipodi-0.dtd"
   xmlns:inkscape="http://www.inkscape.org/namespaces/inkscape"
   width="605.8125"
   height="87.421875"
   viewBox="0 0 605.8125 87.421875"
   version="1.1"
   id="SVGRoot"
   sodipodi:docname="logo.svg"
   inkscape:version="1.0.2-2 (e86c870879, 2021-01-15)">
  <title
     id="title61">GatsbyAirtable</title>
  <defs
     id="defs40" />
  <sodipodi:namedview
     id="base"
     pagecolor="#ffffff"
     bordercolor="#666666"
     borderopacity="1.0"
     inkscape:pageopacity="0.0"
     inkscape:pageshadow="2"
     inkscape:zoom="0.99"
     inkscape:cx="405.79471"
     inkscape:cy="127.0603"
     inkscape:document-units="px"
     inkscape:current-layer="layer1"
     inkscape:document-rotation="0"
     showgrid="false"
     inkscape:window-width="1350"
     inkscape:window-height="728"
     inkscape:window-x="0"
     inkscape:window-y="0"
     inkscape:window-maximized="0">
    <inkscape:grid
       type="xygrid"
       id="grid63"
       originx="-65.084839"
       originy="-244.77231" />
  </sodipodi:namedview>
  <metadata
     id="metadata43">
    <rdf:RDF>
      <cc:Work
         rdf:about="">
        <dc:format>image/svg+xml</dc:format>
        <dc:type
           rdf:resource="http://purl.org/dc/dcmitype/StillImage" />
        <dc:title>GatsbyAirtable</dc:title>
      </cc:Work>
    </rdf:RDF>
  </metadata>
  <g
     inkscape:label="Слой 1"
     inkscape:groupmode="layer"
     id="layer1"
     style="display:inline;opacity:1"
     transform="translate(-65.084839,-244.77231)">
    <g
       aria-label="GatsbyAirtable"
       id="text55"
       style="font-style:normal;font-variant:normal;font-weight:bold;font-stretch:normal;font-size:96px;line-height:1.25;font-family:Candara;-inkscape-font-specification:'Candara Bold';text-align:center;text-anchor:middle;display:inline">
      <path
         d="m 116.50671,309.83481 c -7.4375,1.90625 -13.65625,2.85937 -18.656246,2.85937 -10.75,0 -18.90625,-2.9375 -24.46875,-8.8125 -5.53125,-5.90625 -8.296875,-13.0625 -8.296875,-21.46875 0,-8.84375 3.015625,-16.53125 9.046875,-23.0625 6.0625,-6.53125 14.453125,-9.79687 25.171875,-9.79687 5.031251,0 9.468751,0.45312 13.312501,1.35937 l -1.54688,11.0625 c -4.90625,-1.28125 -9.3125,-1.92187 -13.218746,-1.92187 -6.59375,0 -11.515625,2.03125 -14.765625,6.09375 -3.25,4.03125 -4.875,8.96875 -4.875,14.8125 0,5.96875 1.8125,11.17187 5.4375,15.60937 3.65625,4.4375 8.6875,6.65625 15.09375,6.65625 1.781251,0 3.843751,-0.1875 6.187501,-0.5625 -0.46875,-3.46875 -0.70313,-6.875 -0.70313,-10.21875 0,-3.375 0.65625,4.21875 0,0 l 12.28125,-11.39062 c -0.25,4.8125 -0.375,9.65625 -0.375,14.53125 0,3.53125 0.125,8.28125 0.375,14.25 z"
         style="fill:#003380"
         id="path13"
         sodipodi:nodetypes="cscscsccscscscsccsc" />
      <path
         d="m 164.50671,311.38168 -11.0625,0.375 q -0.75,-1.96875 -0.75,-3.5625 h -0.60937 q -5.15625,4.40625 -13.92188,4.40625 -5.85937,0 -9.75,-3.23437 -3.84375,-3.28125 -3.84375,-8.67188 0,-7.125 6,-11.67187 6.04688,-4.54688 21.14063,-4.82813 0.0937,-0.84375 0.0937,-1.59375 0,-5.0625 -2.4375,-6.65625 -2.4375,-1.64062 -8.95313,-1.64062 -7.07812,0 -13.82812,1.875 l 1.03125,-8.625 q 6.375,-2.20313 18,-2.20313 8.48437,0 13.07812,3.5625 4.64063,3.5625 4.64063,12.46875 0,1.96875 -0.1875,7.17188 -0.14063,5.20312 -0.14063,6.9375 0,9.70312 1.5,15.89062 z m -12.51562,-9.75 q -0.28125,-6.32812 -0.28125,-10.92187 -15.98438,0 -15.98438,8.10937 0,5.57813 7.03125,5.57813 5.53125,0 9.23438,-2.76563 z"
         style="fill:#003380"
         id="path15" />
      <path
         d="m 201.30359,302.66293 -0.79688,8.34375 q -3.28125,1.40625 -8.25,1.40625 -7.59375,0 -11.4375,-4.125 -3.84375,-4.125 -3.84375,-15.89062 0,-7.07813 0.0937,-16.03125 -2.39062,0 -6.46875,0.28125 l 0.32813,-9.23438 q 3.60937,0.28125 6.70312,0.28125 0.0469,-2.48437 0.375,-13.07812 l 11.10938,-1.35938 q -0.70313,9.32813 -0.70313,14.4375 3.9375,0 11.76563,-0.375 l -0.375,9.32813 q -7.125,-0.28125 -11.57813,-0.28125 -0.0937,6.23437 -0.0937,13.07812 0,8.34375 1.6875,11.20313 1.6875,2.8125 5.95313,2.8125 2.57812,0 5.53125,-0.79688 z m -17.67188,-35.76562 z"
         style="fill:#003380"
         id="path17" />
      <path
         d="m 240.20984,298.63168 q 0,14.0625 -20.8125,14.0625 -7.59375,0 -13.26563,-1.64062 l 1.59375,-9.23438 q 5.85938,2.10938 11.67188,2.10938 5.625,0 7.78125,-0.9375 2.20312,-0.9375 2.20312,-3.14063 0,-3.42187 -7.875,-6.51562 -6.89062,-2.71875 -10.03125,-5.34375 -4.3125,-3.65625 -4.3125,-8.95313 0,-6.23437 4.64063,-10.03125 4.64062,-3.79687 13.5,-3.79687 8.29687,0 13.03125,1.45312 l -1.59375,9.28125 q -5.29688,-2.0625 -11.4375,-2.0625 -7.5,0 -7.5,3.84375 0,1.96875 1.59375,3.1875 1.59375,1.17188 6.51562,3 6.79688,2.48438 9.89063,5.10938 4.40625,3.75 4.40625,9.60937 z"
         style="fill:#003380"
         id="path19" />
      <path
         d="m 293.41296,287.24106 q 0,10.17187 -5.8125,17.85937 -5.8125,7.6875 -15.98437,7.6875 -7.5,0 -10.59375,-3.1875 h -0.60938 l -0.9375,1.82813 h -11.01562 q 0.60937,-16.45313 0.60937,-34.82813 0,-17.29687 -1.54687,-31.07812 l 13.45312,-0.75 q -0.46875,10.92187 -0.46875,24.70312 h 0.5625 q 4.73438,-4.17187 12.79688,-4.17187 9,0 14.25,6.51562 5.29687,6.46875 5.29687,15.42188 z m -12.46875,1.21875 q 0,-5.85938 -3,-10.125 -2.95312,-4.3125 -8.15625,-4.3125 -6.46875,0 -9.46875,3.79687 0,16.03125 0.70313,24.14063 2.95312,2.29687 7.64062,2.29687 6.23438,0 9.23438,-4.59375 3.04687,-4.64062 3.04687,-11.20312 z"
         style="fill:#003380"
         id="path21" />
      <path
         d="m 342.02234,266.89731 q 0,3.04687 -6.70313,19.3125 -7.64062,18.70312 -9.42187,25.5 -3.04688,11.71875 -8.20313,16.17187 -4.96875,4.3125 -14.90625,4.3125 l -0.9375,-9.04687 q 5.8125,0 9.5625,-3.32813 3.75,-3.28125 3.75,-8.8125 0,-5.57812 -8.4375,-24.375 -8.4375,-18.84375 -8.4375,-19.73437 h 14.48438 q 0,1.64062 4.26562,15.89062 4.26563,14.25 4.26563,17.4375 h 0.65625 q 0,-2.71875 3.84375,-16.03125 3.89062,-13.35937 3.89062,-17.29687 z"
         style="fill:#003380"
         id="path23" />
      <path
         d="m 403.56921,311.42856 h -15 q 0,-3.09375 -4.26562,-17.53125 h -21.65625 q -4.40625,14.20312 -4.40625,17.53125 h -14.10938 q 0,-1.82813 10.92188,-30 10.96875,-28.17188 10.96875,-31.03125 h 17.71875 q 0,2.67187 9.89062,30.60937 9.9375,27.89063 9.9375,30.42188 z m -21.65625,-26.48438 q -8.01562,-24.1875 -8.01562,-26.15625 h -0.75 q 0,1.82813 -8.29688,26.15625 z"
         style="fill:#00aad4"
         id="path25" />
      <path
         d="m 422.60046,311.42856 h -12.60937 q 0.65625,-9.70313 0.65625,-22.26563 0,-12.46875 -1.59375,-21.84375 l 13.5,-1.35937 q -0.60938,9.09375 -0.60938,23.20312 0,12.04688 0.65625,22.26563 z m 2.15625,-58.6875 q 0,3.1875 -2.20312,5.57812 -2.15625,2.39063 -6.04688,2.39063 -3.28125,0 -5.15625,-2.0625 -1.82812,-2.0625 -1.82812,-4.96875 0,-3.1875 2.15625,-5.53125 2.20312,-2.34375 6.14062,-2.34375 3.32813,0 5.10938,2.0625 1.82812,2.01562 1.82812,4.875 z"
         style="fill:#00aad4"
         id="path27" />
      <path
         d="m 464.13171,266.89731 -2.71875,10.96875 q -3.46875,-1.40625 -7.03125,-1.40625 -6.89062,0 -9.09375,6.1875 0,18.70312 0.28125,28.78125 h -12.46875 q 0.79688,-14.10938 0.79688,-23.0625 0,-11.15625 -2.34375,-21.14063 l 11.95312,-1.3125 q 0.79688,5.15625 0.79688,6.04688 h 0.75 q 4.3125,-6.60938 11.48437,-6.60938 3.375,0 7.59375,1.54688 z"
         style="fill:#00aad4"
         id="path29" />
      <path
         d="m 497.97546,302.66293 -0.79687,8.34375 q -3.28125,1.40625 -8.25,1.40625 -7.59375,0 -11.4375,-4.125 -3.84375,-4.125 -3.84375,-15.89062 0,-7.07813 0.0937,-16.03125 -2.39063,0 -6.46875,0.28125 l 0.32812,-9.23438 q 3.60938,0.28125 6.70313,0.28125 0.0469,-2.48437 0.375,-13.07812 l 11.10937,-1.35938 q -0.70312,9.32813 -0.70312,14.4375 3.9375,0 11.76562,-0.375 l -0.375,9.32813 q -7.125,-0.28125 -11.57812,-0.28125 -0.0937,6.23437 -0.0937,13.07812 0,8.34375 1.6875,11.20313 1.6875,2.8125 5.95312,2.8125 2.57813,0 5.53125,-0.79688 z m -17.67187,-35.76562 z"
         style="fill:#00aad4"
         id="path31" />
      <path
         d="m 543.16296,311.38168 -11.0625,0.375 q -0.75,-1.96875 -0.75,-3.5625 h -0.60937 q -5.15625,4.40625 -13.92188,4.40625 -5.85937,0 -9.75,-3.23437 -3.84375,-3.28125 -3.84375,-8.67188 0,-7.125 6,-11.67187 6.04688,-4.54688 21.14063,-4.82813 0.0937,-0.84375 0.0937,-1.59375 0,-5.0625 -2.4375,-6.65625 -2.4375,-1.64062 -8.95313,-1.64062 -7.07812,0 -13.82812,1.875 l 1.03125,-8.625 q 6.375,-2.20313 18,-2.20313 8.48437,0 13.07812,3.5625 4.64063,3.5625 4.64063,12.46875 0,1.96875 -0.1875,7.17188 -0.14063,5.20312 -0.14063,6.9375 0,9.70312 1.5,15.89062 z m -12.51562,-9.75 q -0.28125,-6.32812 -0.28125,-10.92187 -15.98438,0 -15.98438,8.10937 0,5.57813 7.03125,5.57813 5.53125,0 9.23438,-2.76563 z"
         style="fill:#00aad4"
         id="path33" />
      <path
         d="m 596.97546,287.24106 q 0,10.17187 -5.8125,17.85937 -5.8125,7.6875 -15.98437,7.6875 -7.5,0 -10.59375,-3.1875 h -0.60938 l -0.9375,1.82813 h -11.01562 q 0.60937,-16.45313 0.60937,-34.82813 0,-17.29687 -1.54687,-31.07812 l 13.45312,-0.75 q -0.46875,10.92187 -0.46875,24.70312 h 0.5625 q 4.73438,-4.17187 12.79688,-4.17187 9,0 14.25,6.51562 5.29687,6.46875 5.29687,15.42188 z m -12.46875,1.21875 q 0,-5.85938 -3,-10.125 -2.95312,-4.3125 -8.15625,-4.3125 -6.46875,0 -9.46875,3.79687 0,16.03125 0.70313,24.14063 2.95312,2.29687 7.64062,2.29687 6.23438,0 9.23438,-4.59375 3.04687,-4.64062 3.04687,-11.20312 z"
         style="fill:#00aad4"
         id="path35" />
      <path
         d="m 619.42859,311.42856 h -12.79688 q 0.70313,-16.07813 0.70313,-34.82813 0,-18.28125 -1.45313,-31.07812 l 13.54688,-0.75 q -0.70313,13.26562 -0.70313,31.82812 0,18.84375 0.70313,34.82813 z"
         style="fill:#00aad4"
         id="path37" />
      <path
         d="m 670.89734,284.38168 q 0,2.39063 -0.28125,6.23438 l -30.1875,0.51562 q 0.65625,5.29688 4.54687,8.8125 3.89063,3.51563 10.21875,3.51563 7.03125,0 14.95313,-2.10938 l -0.9375,9.09375 q -6.46875,2.34375 -16.03125,2.34375 -12.09375,0 -18.5625,-6.79687 -6.42188,-6.79688 -6.42188,-16.35938 0,-9.98437 6.09375,-17.29687 6.14063,-7.35938 17.01563,-7.35938 9.9375,0 14.76562,5.39063 4.82813,5.39062 4.82813,14.01562 z m -10.96875,-0.42187 q 0,-10.78125 -9.1875,-10.78125 -8.76563,0 -10.40625,11.15625 z"
         style="fill:#00aad4"
         id="path39" />
    </g>
  </g>
</svg>
